<svg width="187" height="147" viewBox="0 0 187 147" fill="none" xmlns="http://www.w3.org/2000/svg">
<path fill-rule="evenodd" clip-rule="evenodd" d="M0.913574 119.664C0.986932 99.9261 14.0189 83.1912 23.0127 65.0063C34.196 42.3945 32.5327 4.85514 59.8477 0.503537C89.4756 -4.2165 101.624 36.5992 128.419 48.214C146.678 56.1286 170.193 46.4476 187.517 55.8438C209.011 67.5024 233.928 83.4541 234.834 105.934C235.74 128.43 211.71 146.07 191.724 160.259C176.003 171.42 153.168 167.21 135.811 176.234C112.916 188.137 102.442 220.42 76.0942 220.375C50.8735 220.331 36.4194 194.55 22.6 176.038C9.96298 159.11 0.837552 140.12 0.913574 119.664Z" fill="#C5CDFC" fill-opacity="0.38"/>
</svg>
