<svg width="35" height="34" viewBox="0 0 35 34" fill="none" xmlns="http://www.w3.org/2000/svg">
<mask id="mask0_202_710" style="mask-type:luminance" maskUnits="userSpaceOnUse" x="0" y="0" width="35" height="34">
<path d="M0.414062 0.0361328H34.1845V33.8066H0.414062V0.0361328Z" fill="white"/>
</mask>
<g mask="url(#mask0_202_710)">
<path d="M34.1845 16.9214C34.1845 17.4754 34.1581 18.0273 34.1032 18.5769C34.0504 19.1266 33.9691 19.674 33.8613 20.2149C33.7536 20.7579 33.6195 21.2944 33.459 21.8242C33.2985 22.3519 33.1116 22.873 32.9005 23.383C32.6873 23.8953 32.452 24.3944 32.1904 24.8825C31.931 25.3684 31.6473 25.8433 31.3395 26.3028C31.0317 26.7623 30.7041 27.2064 30.3524 27.6329C30.0006 28.0617 29.6312 28.4706 29.2399 28.8619C28.8485 29.2533 28.4396 29.6227 28.0109 29.9744C27.5843 30.3262 27.1402 30.6538 26.6807 30.9616C26.2212 31.2694 25.7463 31.553 25.2604 31.8125C24.7723 32.0741 24.2732 32.3093 23.761 32.5226C23.2509 32.7337 22.7298 32.9206 22.2022 33.081C21.6723 33.2415 21.1358 33.3757 20.595 33.4834C20.0519 33.5911 19.5045 33.6725 18.9548 33.7252C18.4052 33.7802 17.8533 33.8066 17.2993 33.8066C16.7474 33.8066 16.1956 33.7802 15.6437 33.7252C15.0941 33.6725 14.5488 33.5911 14.0058 33.4834C13.4627 33.3757 12.9285 33.2415 12.3986 33.081C11.8688 32.9206 11.3499 32.7337 10.8376 32.5226C10.3275 32.3093 9.82845 32.0741 9.34037 31.8125C8.85228 31.553 8.37958 31.2694 7.91787 30.9616C7.45837 30.6538 7.01645 30.3262 6.58772 29.9744C6.1612 29.6227 5.75006 29.2533 5.36091 28.8619C4.96956 28.4706 4.59799 28.0617 4.24622 27.6329C3.89664 27.2064 3.56685 26.7623 3.26125 26.3028C2.95344 25.8433 2.66982 25.3684 2.40819 24.8825C2.14656 24.3944 1.91131 23.8953 1.70024 23.383C1.48918 22.873 1.3023 22.3519 1.1418 21.8242C0.9813 21.2944 0.847186 20.7579 0.739455 20.2149C0.631724 19.674 0.550375 19.1266 0.495411 18.5769C0.442644 18.0273 0.414062 17.4754 0.414062 16.9214C0.414062 16.3695 0.442644 15.8177 0.495411 15.2658C0.550375 14.7162 0.631724 14.1709 0.739455 13.6279C0.847186 13.0848 0.9813 12.5483 1.1418 12.0207C1.3023 11.4908 1.48918 10.972 1.70024 10.4597C1.91131 9.94961 2.14656 9.45053 2.40819 8.96244C2.66982 8.47435 2.95344 8.00165 3.26125 7.53995C3.56685 7.08044 3.89664 6.63632 4.24622 6.20979C4.59799 5.78327 4.96956 5.37213 5.36091 4.98298C5.75006 4.59163 6.1612 4.22006 6.58772 3.86829C7.01645 3.51871 7.45837 3.18892 7.91787 2.88112C8.37958 2.57551 8.85228 2.29189 9.34037 2.03026C9.82845 1.76863 10.3275 1.53338 10.8376 1.32231C11.3499 1.10905 11.8688 0.924366 12.3986 0.763868C12.9285 0.60337 13.4627 0.469256 14.0058 0.361525C14.5488 0.253794 15.0941 0.172446 15.6437 0.117481C16.1956 0.0625161 16.7474 0.0361328 17.2993 0.0361328C17.8533 0.0361328 18.4052 0.0625161 18.9548 0.117481C19.5045 0.172446 20.0519 0.253794 20.595 0.361525C21.1358 0.469256 21.6723 0.60337 22.2022 0.763868C22.7298 0.924366 23.2509 1.10905 23.761 1.32231C24.2732 1.53338 24.7723 1.76863 25.2604 2.03026C25.7463 2.29189 26.2212 2.57551 26.6807 2.88112C27.1402 3.18892 27.5843 3.51871 28.0109 3.86829C28.4396 4.22006 28.8485 4.59163 29.2399 4.98298C29.6312 5.37213 30.0006 5.78327 30.3524 6.20979C30.7041 6.63632 31.0317 7.08044 31.3395 7.53995C31.6473 8.00165 31.931 8.47435 32.1904 8.96244C32.452 9.45053 32.6873 9.94961 32.9005 10.4597C33.1116 10.972 33.2985 11.4908 33.459 12.0207C33.6195 12.5483 33.7536 13.0848 33.8613 13.6279C33.9691 14.1709 34.0504 14.7162 34.1032 15.2658C34.1581 15.8177 34.1845 16.3695 34.1845 16.9214Z" fill="#004DAF"/>
</g>
<path d="M21.7423 17.8276L22.239 14.1604H18.4234V11.8179C18.4234 10.7545 18.7347 10.0311 20.3346 10.0311L22.374 10.0289V6.74951C22.0215 6.70375 20.8107 6.60352 19.4007 6.60352C16.4572 6.60352 14.4453 8.31405 14.4453 11.454V14.1604H11.1172V17.8276H14.4453V27.241H18.4234V17.8276H21.7423Z" fill="#F5F6FF"/>
</svg>
