<svg width="35" height="34" viewBox="0 0 35 34" fill="none" xmlns="http://www.w3.org/2000/svg">
<mask id="mask0_202_704" style="mask-type:luminance" maskUnits="userSpaceOnUse" x="0" y="0" width="35" height="34">
<path d="M0.550781 0.0351562H34.3212V33.8056H0.550781V0.0351562Z" fill="white"/>
</mask>
<g mask="url(#mask0_202_704)">
<path d="M17.436 0.0351562C8.11176 0.0351562 0.550781 7.59393 0.550781 16.9204C0.550781 26.2468 8.11176 33.8056 17.436 33.8056C26.7625 33.8056 34.3212 26.2468 34.3212 16.9204C34.3212 7.59393 26.7625 0.0351562 17.436 0.0351562ZM12.3397 25.1981H8.79112V13.9523H12.3397V25.1981ZM10.4752 12.5452H10.4489C9.16488 12.5452 8.33162 11.6855 8.33162 10.595C8.33162 9.50451 9.18907 8.64266 10.4994 8.64266C11.8098 8.64266 12.6145 9.48253 12.6409 10.5928C12.6409 11.6833 11.8098 12.5452 10.4774 12.5452H10.4752ZM26.5404 25.1981H22.5148V19.3762C22.5148 17.8548 21.886 16.8148 20.5009 16.8148C19.4433 16.8148 18.8541 17.5162 18.5793 18.1912C18.4759 18.4352 18.4935 18.7716 18.4935 19.1102V25.1959H14.5075C14.5075 25.1959 14.558 14.8867 14.5075 13.9501H18.4935V15.7156C18.7288 14.9438 20.004 13.8423 22.0355 13.8423C24.5595 13.8423 26.5404 15.4605 26.5404 18.9431V25.1981Z" fill="#004DAF"/>
</g>
</svg>
