<svg width="25" height="25" viewBox="0 0 25 25" fill="none" xmlns="http://www.w3.org/2000/svg">
<g clip-path="url(#clip0_867_521)">
<mask id="mask0_867_521" style="mask-type:luminance" maskUnits="userSpaceOnUse" x="0" y="0" width="25" height="25">
<path d="M12.9844 22.2095C14.2979 22.2112 15.5987 21.9533 16.8122 21.4506C18.0257 20.948 19.1278 20.2105 20.0554 19.2805C20.9854 18.3529 21.7229 17.2508 22.2255 16.0373C22.7282 14.8238 22.9861 13.5229 22.9844 12.2095C22.9861 10.896 22.7282 9.59517 22.2255 8.38169C21.7228 7.16822 20.9853 6.06603 20.0554 5.13848C19.1278 4.20849 18.0257 3.47098 16.8122 2.96832C15.5987 2.46567 14.2979 2.20778 12.9844 2.20948C11.6709 2.20781 10.3701 2.46571 9.1566 2.96836C7.94312 3.47102 6.84094 4.20852 5.91338 5.13848C4.98342 6.06603 4.24592 7.16822 3.74326 8.38169C3.24061 9.59517 2.98271 10.896 2.98438 12.2095C2.98268 13.5229 3.24057 14.8238 3.74323 16.0373C4.24588 17.2508 4.9834 18.3529 5.91338 19.2805C6.84094 20.2104 7.94312 20.9479 9.1566 21.4506C10.3701 21.9533 11.6709 22.2112 12.9844 22.2095Z" fill="white" stroke="white" stroke-width="4" stroke-linejoin="round"/>
<path d="M8.98438 12.2095L11.9844 15.2095L17.9844 9.20947" stroke="black" stroke-width="4" stroke-linecap="round" stroke-linejoin="round"/>
</mask>
<g mask="url(#mask0_867_521)">
<path d="M0.984375 0.209473H24.9844V24.2095H0.984375V0.209473Z" fill="#3CA357"/>
</g>
</g>
<defs>
<clipPath id="clip0_867_521">
<rect width="24" height="24" fill="white" transform="translate(0.984375 0.209473)"/>
</clipPath>
</defs>
</svg>
