<svg width="91" height="29" viewBox="0 0 91 29" fill="none" xmlns="http://www.w3.org/2000/svg">
<path d="M46.1409 9.68664L42.8449 20.8066H40.7809L38.4449 12.3906L35.9649 20.8066L33.9169 20.8226L30.7649 9.68664H32.7009L35.0049 18.7426L37.5009 9.68664H39.5489L41.8689 18.6946L44.1889 9.68664H46.1409ZM48.2373 16.3586C48.2373 15.4733 48.4186 14.6893 48.7813 14.0066C49.1546 13.324 49.656 12.796 50.2853 12.4226C50.9253 12.0386 51.6293 11.8466 52.3973 11.8466C53.0906 11.8466 53.6933 11.9853 54.2053 12.2626C54.728 12.5293 55.144 12.8653 55.4533 13.2706V11.9906H57.2933V20.8066H55.4533V19.4946C55.144 19.9106 54.7226 20.2573 54.1893 20.5346C53.656 20.812 53.048 20.9506 52.3653 20.9506C51.608 20.9506 50.9146 20.7586 50.2853 20.3746C49.656 19.98 49.1546 19.436 48.7813 18.7426C48.4186 18.0386 48.2373 17.244 48.2373 16.3586ZM55.4533 16.3906C55.4533 15.7826 55.3253 15.2546 55.0693 14.8066C54.824 14.3586 54.4986 14.0173 54.0933 13.7826C53.688 13.548 53.2506 13.4306 52.7813 13.4306C52.312 13.4306 51.8746 13.548 51.4693 13.7826C51.064 14.0066 50.7333 14.3426 50.4773 14.7906C50.232 15.228 50.1093 15.7506 50.1093 16.3586C50.1093 16.9666 50.232 17.5 50.4773 17.9586C50.7333 18.4173 51.064 18.7693 51.4693 19.0146C51.8853 19.2493 52.3226 19.3666 52.7813 19.3666C53.2506 19.3666 53.688 19.2493 54.0933 19.0146C54.4986 18.78 54.824 18.4386 55.0693 17.9906C55.3253 17.532 55.4533 16.9986 55.4533 16.3906ZM62.7131 8.96664V20.8066H60.8891V8.96664H62.7131ZM68.1318 8.96664V20.8066H66.3078V8.96664H68.1318ZM79.8066 16.1826C79.8066 16.5133 79.7852 16.812 79.7426 17.0786H73.0066C73.0599 17.7826 73.3212 18.348 73.7906 18.7746C74.2599 19.2013 74.8359 19.4146 75.5186 19.4146C76.4999 19.4146 77.1932 19.004 77.5986 18.1826H79.5666C79.2999 18.9933 78.8146 19.66 78.1106 20.1826C77.4172 20.6946 76.5532 20.9506 75.5186 20.9506C74.6759 20.9506 73.9186 20.764 73.2466 20.3906C72.5852 20.0066 72.0626 19.4733 71.6786 18.7906C71.3052 18.0973 71.1186 17.2973 71.1186 16.3906C71.1186 15.484 71.2999 14.6893 71.6626 14.0066C72.0359 13.3133 72.5532 12.78 73.2146 12.4066C73.8866 12.0333 74.6546 11.8466 75.5186 11.8466C76.3506 11.8466 77.0919 12.028 77.7426 12.3906C78.3932 12.7533 78.8999 13.2653 79.2626 13.9266C79.6252 14.5773 79.8066 15.3293 79.8066 16.1826ZM77.9026 15.6066C77.8919 14.9346 77.6519 14.396 77.1826 13.9906C76.7132 13.5853 76.1319 13.3826 75.4386 13.3826C74.8092 13.3826 74.2706 13.5853 73.8226 13.9906C73.3746 14.3853 73.1079 14.924 73.0226 15.6066H77.9026ZM84.9296 13.4786V18.3586C84.9296 18.6893 85.0042 18.9293 85.1536 19.0786C85.3136 19.2173 85.5802 19.2866 85.9536 19.2866H87.0736V20.8066H85.6336C84.8122 20.8066 84.1829 20.6146 83.7456 20.2306C83.3082 19.8466 83.0896 19.2226 83.0896 18.3586V13.4786H82.0496V11.9906H83.0896V9.79864H84.9296V11.9906H87.0736V13.4786H84.9296Z" fill="#424040"/>
<mask id="mask0_260_177" style="mask-type:luminance" maskUnits="userSpaceOnUse" x="7" y="2" width="16" height="8">
<path d="M7.58203 2.88867H22.0946V9.39098H7.58203V2.88867Z" fill="white"/>
</mask>
<g mask="url(#mask0_260_177)">
<path d="M7.73438 9.19214L16.3758 2.89014L21.7556 9.19214H7.73438Z" fill="#3FBB69"/>
</g>
<path d="M14.3984 5.27009L16.2352 3.88875L17.7129 5.60645" stroke="white" stroke-width="1.1483" stroke-miterlimit="10" stroke-linecap="round" stroke-linejoin="round"/>
<path d="M16.7302 9.41188C16.8398 9.16055 16.8984 8.88466 16.8984 8.59177C16.8984 7.42585 15.9347 6.48291 14.748 6.48291C13.5575 6.48291 12.5938 7.42585 12.5938 8.59177C12.5938 8.88466 12.6542 9.16055 12.7619 9.41188H16.7302Z" fill="white"/>
<path d="M2.75391 9.38946L12.5952 3.88867L16.7733 9.38946H2.75391Z" fill="#3FBB69"/>
<path d="M12.5407 9.60768C12.6465 9.35635 12.707 9.07857 12.707 8.78757C12.707 7.62165 11.7433 6.67871 10.5547 6.67871C9.36607 6.67871 8.40234 7.62165 8.40234 8.78757C8.40234 9.07857 8.46281 9.35635 8.57241 9.60768H12.5407Z" fill="white"/>
<path d="M10.4688 5.69681L12.3244 4.63105L13.6831 6.48291" stroke="white" stroke-width="1.1483" stroke-miterlimit="10" stroke-linecap="round" stroke-linejoin="round"/>
<mask id="mask1_260_177" style="mask-type:luminance" maskUnits="userSpaceOnUse" x="0" y="8" width="24" height="18">
<path d="M0.0273438 8.4248H23.0641V25.0216H0.0273438V8.4248Z" fill="white"/>
</mask>
<g mask="url(#mask1_260_177)">
<path d="M22.9185 22.5966C22.9185 23.9364 21.8754 25.0191 20.5904 25.0191H2.35149C1.06653 25.0191 0.0234375 23.9364 0.0234375 22.5966V11.2209C0.0234375 9.883 1.06653 8.79834 2.35149 8.79834H20.5904C21.8754 8.79834 22.9185 9.883 22.9185 11.2209V22.5966Z" fill="#5C2B15"/>
</g>
<mask id="mask2_260_177" style="mask-type:luminance" maskUnits="userSpaceOnUse" x="13" y="13" width="12" height="8">
<path d="M13.3945 13.7446H24.3413V20.0334H13.3945V13.7446Z" fill="white"/>
</mask>
<g mask="url(#mask2_260_177)">
<path d="M24.3279 14.0068H16.756C15.0572 14.0068 13.6797 15.305 13.6797 16.9075C13.6797 18.5118 15.0572 19.81 16.756 19.81H24.3279V14.0068Z" fill="#8A451B"/>
</g>
<path d="M17.352 16.9078C17.352 17.5578 16.821 18.0832 16.1672 18.0832C15.5115 18.0832 14.9805 17.5578 14.9805 16.9078C14.9805 16.2596 15.5115 15.7324 16.1672 15.7324C16.821 15.7324 17.352 16.2596 17.352 16.9078Z" fill="#F89F27"/>
</svg>
