<svg width="35" height="34" viewBox="0 0 35 34" fill="none" xmlns="http://www.w3.org/2000/svg">
<mask id="mask0_202_725" style="mask-type:luminance" maskUnits="userSpaceOnUse" x="0" y="0" width="35" height="34">
<path d="M0.8125 0.0351562H34.583V33.8056H0.8125V0.0351562Z" fill="white"/>
</mask>
<g mask="url(#mask0_202_725)">
<path d="M34.583 16.9204C34.583 26.249 27.0286 33.8056 17.6977 33.8056C8.36908 33.8056 0.8125 26.249 0.8125 16.9204C0.8125 7.59173 8.36908 0.0351562 17.6977 0.0351562C27.0286 0.0351562 34.583 7.59173 34.583 16.9204ZM14.6087 25.8269C22.0971 25.8269 26.1909 19.6225 26.1909 14.2447C26.1909 14.0666 26.1909 13.8885 26.1843 13.7214C26.978 13.1476 27.6684 12.4286 28.218 11.6108C27.4925 11.9318 26.7076 12.1494 25.8787 12.2506C26.723 11.7449 27.365 10.9512 27.6684 9.997C26.8835 10.4609 26.015 10.7995 25.085 10.9842C24.3419 10.1927 23.2866 9.70239 22.1147 9.70239C19.8677 9.70239 18.0451 11.525 18.0451 13.772C18.0451 14.093 18.0781 14.4052 18.155 14.6998C14.7692 14.5305 11.7725 12.9101 9.76299 10.4455C9.41561 11.0435 9.21334 11.7449 9.21334 12.488C9.21334 13.8973 9.93228 15.1483 11.0294 15.8739C10.361 15.8563 9.73661 15.6716 9.18916 15.366C9.18916 15.3836 9.18916 15.4012 9.18916 15.4165C9.18916 17.3931 10.5897 19.031 12.4563 19.4114C12.1177 19.5037 11.7549 19.5543 11.3834 19.5543C11.1217 19.5543 10.8689 19.5301 10.616 19.4795C11.1305 21.0999 12.6322 22.274 14.4152 22.3069C13.0213 23.3953 11.2646 24.046 9.35625 24.046C9.02866 24.046 8.70766 24.0284 8.38667 23.9867C10.1675 25.1519 12.3112 25.8269 14.6087 25.8269Z" fill="#004DAF"/>
</g>
</svg>
